<?xml version="1.0" encoding="UTF-8"?>
<svg id="Ebene_1" data-name="Ebene 1" xmlns="http://www.w3.org/2000/svg" version="1.1" viewBox="0 0 195.4 155.9">
  <defs>
    <style>
      .cls-1 {
        fill: #1d1d1b;
        stroke-width: 0px;
      }
    </style>
  </defs>
  <path class="cls-1" d="M168.3,96.1l-27.5,15.6v-47.6h-16v56.7l-27.2,15.4-.3-.2V20l.3-.2,27.2,15.4v23.4h16v-14.3l27.5,15.6v36.2ZM61.3,111.5c3.3,0,5.4-2.6,6.4-16.7h23c-4.7,11.9-13.5,20.9-27.6,21.6l-33.3-18.9c-1.9-5.5-2.7-12.1-2.7-19.6s.8-14.1,2.7-19.6l33.3-18.9c14.1.7,22.9,9.7,27.6,21.6h-23c-.9-14.1-3-16.7-6.4-16.7-5.2,0-7,0-7,33.5s1.8,33.5,7,33.5M97.8,6.6L7.1,58.1v39.7l90.7,51.6,90.5-51.6v-39.7L97.8,6.6Z"/>
</svg>