<?xml version="1.0" encoding="UTF-8"?>
<svg id="Ebene_1" xmlns="http://www.w3.org/2000/svg" version="1.1" viewBox="0 0 397.54 106.33">
  <!-- Generator: Adobe Illustrator 29.7.1, SVG Export Plug-In . SVG Version: 2.1.1 Build 8)  -->
  <defs>
    <style>
      .st0 {
        fill: #f7bf3f;
      }
    </style>
  </defs>
  <path class="st0" d="M5.42,7.85h8.76l2.5.14,1.67.13,4.31.41c7.95.85,15.8,2.95,22.95,6.53,3.39,1.7,6.46,3.76,9.32,6.25,1.17,1.02,3.19,2.95,4.03,4.21-3.77,4.1-5.29,6.06-7.37,11.27h-.28c-5.86-8.71-15.72-13-25.73-14.8-1.81-.33-5.47-.9-7.23-.91v64.96c2.13-.17,5.26-.72,7.37-1.19,8.68-1.92,17.15-5.8,23.11-12.58,1.35-1.53,2.72-3.36,3.69-5.15,1.66-3.07,2.88-6.28,3.46-9.74.91-5.42.46-9.41,2.11-14.88.74-2.46,2.1-4.96,3.52-7.09,5-7.5,12.96-12.64,21.84-14.13l3.62-.35,1.67-.13h.56l1.39.13,2.64.19c7.39.94,14.53,4.68,19.6,10.12,4.34,4.66,7.35,10.82,8.32,17.11.17,1.1.31,2.23.32,3.34l.14,2.23-.14,2.23c-.03,2.43-.97,6.46-1.81,8.76-1.32,3.6-3.31,6.97-5.82,9.87-2.49,2.9-5.93,5.72-9.34,7.47-4.21,2.17-8.32,3.6-13.07,3.94l-1.67.13h-2.92l-1.39-.13c-4.29-.34-8-1.6-11.83-3.52-.97-.49-2.03-1.12-2.92-1.74-.29-.2-.78-.51-.84-.88-.05-.33.28-.82.45-1.1l1.33-2.36c1.59-3.08,2.43-5.37,3.51-8.63,1.53,1.06,2.43,2,4.17,3,3.15,1.8,6.42,2.47,10.02,2.42,2.46-.03,5.27-.86,7.51-1.83,2.26-.97,4.25-2.42,5.98-4.15,1.92-1.92,3.27-3.74,4.31-6.26.91-2.2,1.59-5.41,1.53-7.79l-.12-1.11c-.28-2.9-.89-5.34-2.29-7.93-3.53-6.52-10.49-10.66-17.9-10.57-8.03.09-15.47,5.89-18.12,13.35-1.47,4.12-1.17,7.07-1.82,11.27-1.02,6.58-2.8,12.77-6.53,18.36-8.21,12.31-22.23,18.79-36.39,21.34-3.44.62-7.51,1.15-10.99,1.19l-2.08.14h-5.01l-2.08-.14V7.85h0Z"/>
  <path d="M306.71,26.1h4.73c2.35-.03,5.69.7,7.93,1.46,2.55.85,5.07,2.17,7.23,3.76,7.77,5.73,11.24,14.81,11.13,24.24l-.14,1.39v1.11c-.75,7.68-4.19,14.84-10.29,19.69-4.65,3.7-10.64,5.7-16.55,5.79h-3.34c-2.06-.05-5.4-.76-7.37-1.41-4.55-1.51-8.63-4.17-11.78-7.79-3.59-4.13-5.71-9.36-6.46-14.75-.13-.92-.26-1.85-.26-2.78v-4.31c.04-3.08,1.27-7.77,2.55-10.57,2.94-6.41,8.07-11.49,14.7-13.99,3.11-1.17,4.73-1.35,7.93-1.84h0ZM372.92,44.43c0-3.63-.36-7.41,1.04-10.85,2.81-6.95,10.59-7.75,17.05-6.54v6.95l-2.64-.28c-1.02,0-1.77-.02-2.78.25-.58.16-1.16.37-1.67.69-3.51,2.21-2.92,6.22-2.92,9.78h9.04v6.95h-9.04v31.02h-8.07v-31.02h-4.17v-6.95h4.17ZM347.6,27.04h17.94v6.95h-9.87v10.43h9.6v6.95h-9.6v31.02h-8.07v-31.02h-4.17v-6.95h4.17v-17.39h0ZM140.07,27.18h20.59c3.92,0,9.5,1.52,12.94,3.38,3.77,2.04,6.85,4.79,9.12,8.44,2.32,3.72,3.62,8.02,3.97,12.38l.13,1.67v3.62c-.01,1.29-.33,3.44-.58,4.73-1.33,6.72-4.78,12.49-10.54,16.34-3.94,2.62-8.79,4.16-13.49,4.53l-1.67.13h-20.45V27.18h0ZM308.65,33.32l-1.53.16c-1.22.15-2.44.41-3.62.76-3.94,1.17-7.37,3.76-9.71,7.13-2.79,4.02-3.98,9.06-3.92,13.91l.13,1.39c.5,7.1,3.75,13.83,10.31,17.21,1.65.85,3.18,1.42,5.01,1.78,2.16.43,4.49.56,6.68.3,2.38-.29,4.84-.95,6.95-2.09,5.02-2.72,8.34-7.38,9.65-12.89.35-1.49.64-3.2.65-4.73l.09-1.53-.09-1.95c-.06-4.81-2.61-10.67-5.99-14.04-1.86-1.86-4.1-3.2-6.53-4.15-2.08-.82-5.14-1.3-7.37-1.26h-.69,0ZM148.28,75.17h11.27c3.46,0,7.49-1.17,10.43-2.98,4.75-2.93,7.37-8.03,8.15-13.43.13-.88.19-1.76.2-2.64l.09-1.39-.09-2.08c-.01-.83-.25-2.36-.42-3.2-.9-4.58-3.11-8.72-6.95-11.49-4.9-3.52-9.83-3.68-15.58-3.68h-7.09v40.89h0ZM225.33,75.87c-.91,3.2-4.92,5.8-7.93,6.82-2.71.91-4.72.87-7.51.84-.87-.01-2.06-.22-2.92-.39-5.36-1.09-9.59-4.26-12.2-9.07-1.34-2.47-2.4-6.22-2.41-9.04v-3.48c0-.72.15-1.52.27-2.23.65-3.93,2.53-8.05,5.45-10.81,3.31-3.13,7.28-4.87,11.81-5.2l1.39-.13c4.28-.05,9.15,1.16,12.22,4.33.86.88,1.36,1.72,1.97,2.77l-.14-1.95v-3.89h7.37v37.97h-7.37v-6.54h0ZM241.19,44.43h8.07v18.08c0,2.94-.35,6.69,1.09,9.32,2.17,3.99,8.02,5.25,11.58,2.32,2.36-1.94,3.05-4.37,3.06-7.32v-22.39h8.07v54.94h-27.82v-7.09h19.75v-9.18l.14-4.59-1.16,1.52c-.58.65-1.54,1.31-2.32,1.7-2.61,1.3-4.85,1.26-7.65,1.23-1.03-.01-2.21-.29-3.2-.6-4.11-1.32-6.88-4.18-8.46-8.16-1.44-3.63-1.14-7.71-1.14-11.55v-18.22h0ZM211.98,50.3c-1.04.17-1.89.21-2.92.54-3.14,1-5.7,3.16-7.18,6.12-3.39,6.78-.7,16.29,6.9,18.73.98.32,2.17.59,3.2.6,3.4.04,6.1-.55,8.76-2.82,5.46-4.67,5.73-14.42.82-19.57-2.2-2.31-5.45-3.55-8.61-3.6h-.98Z"/>
</svg>