<?xml version="1.0" encoding="UTF-8"?>
<svg id="Epda_x5F_logo_x5F_descriptor2_x5F_b_x2F_w" xmlns="http://www.w3.org/2000/svg" version="1.1" viewBox="0 0 429.18 104.19">
  <!-- Generator: Adobe Illustrator 29.7.1, SVG Export Plug-In . SVG Version: 2.1.1 Build 8)  -->
  <defs>
    <style>
      .st0 {
        fill: #191817;
      }
    </style>
  </defs>
  <g>
    <g>
      <path class="st0" d="M193.16,7.26H49.92C25.35,7.26,5.44,27.17,5.44,51.74s19.92,44.48,44.48,44.48h143.24c24.57,0,44.48-19.92,44.48-44.48S217.73,7.26,193.16,7.26h0ZM56.53,62.4c7.06,0,7.13-3.65,10.01-3.65.91,0,1.38.28,2.01.54.62.26,1.93.85,3.03,1.36h0c.9.42,1.44,1.57.18,3.18-1.25,1.63-4.97,7.39-15.15,7.38-10.48,0-16.38-5.16-16.38-14.46,0,0,0-5.27,0-10.11,0-8.57,6.59-13.9,16.26-13.9,11.83,0,16,7.18,16,12.06,0,7.65-6.14,12.1-13.76,12.1-7.61,0-9.56-.23-9.56-.23-.26,1.99.02,5.72,7.36,5.73h0ZM114.35,56.3c0,6.51-6.55,14.93-17.47,14.93-5.45,0-8.46-2.1-8.46-2.1v10.14c0,1.93-.74,3.14-2.86,3.14-.55,0-2.5,0-3.09,0-2.39,0-2.99-1.55-2.99-3.58,0-2.65.01-22.94.02-31.04,0-8.09,7.22-15.03,17.55-15.03h0c9.52,0,17.31,7.14,17.31,15.01,0,0,0,2.02,0,8.53h0ZM223.11,81.69h0c-8,8-18.63,12.4-29.95,12.4h-71.62V9.39h71.62c11.31,0,21.94,4.41,29.95,12.4,8,8,12.4,18.63,12.4,29.95s-4.41,21.94-12.4,29.95h0Z"/>
      <path class="st0" d="M96.93,41.56c-5.37,0-8.57,3.37-8.57,6.2,0,2.83,0,6.18,0,8.42,0,3.09,3.42,6.1,8.57,6.1,6.22,0,8.54-3.82,8.53-6.39h0c.01-2.36.01-6.81.01-8.68,0-1.87-2.72-5.65-8.53-5.65h0Z"/>
      <path class="st0" d="M63.66,44.78c0-1.45-1.74-3.24-6.73-3.24-6.95,0-8.25,2.89-7.92,6.48,0,0,5.63,0,9.96,0,4,0,4.69-1.57,4.69-3.25Z"/>
    </g>
    <path class="st0" d="M171.52,43.64c1.1.51,2.41,1.1,3.03,1.36.62.26,1.09.53,2.01.54,2.87,0,2.94-3.66,10.01-3.65,7.34,0,7.61,3.74,7.36,5.73,0,0-1.95-.23-9.56-.23-7.62,0-13.76,4.44-13.77,12.1,0,4.9,4.17,12.07,16.01,12.07,9.67,0,16.26-5.33,16.26-13.9v-10.12c0-9.3-5.89-14.46-16.38-14.46-10.18,0-13.91,5.77-15.16,7.38-1.25,1.62-.71,2.77.18,3.19h0,0ZM186.17,62.75c-5,0-6.73-1.79-6.73-3.25,0-1.67.69-3.24,4.69-3.24,4.33,0,9.96,0,9.96,0,.33,3.59-.96,6.48-7.92,6.48h0ZM146.05,71.54c10.33,0,17.55-6.95,17.55-15.05,0-8.09.01-28.4.02-31.04,0-2.04-.6-3.58-2.99-3.58h-3.09c-2.12,0-2.87,1.21-2.86,3.14,0,2.07,0,10.14,0,10.14,0,0-3.01-2.1-8.46-2.09-10.92-.01-17.47,8.42-17.48,14.93,0,6.51,0,8.54,0,8.54,0,7.87,7.79,15.02,17.32,15.02h0ZM137.63,48.38c0-2.57,2.32-6.4,8.54-6.4,5.15,0,8.57,3.02,8.57,6.11,0,2.25,0,5.6,0,8.43,0,2.83-3.2,6.2-8.58,6.2-5.81,0-8.53-3.78-8.53-5.66,0-1.88,0-6.33,0-8.69h0Z"/>
  </g>
  <g>
    <path class="st0" d="M255.36,21.83h9.54v1.97h-7.18v3.6h6.79v1.95h-6.79v3.96h7.18v1.99h-9.54v-13.48h0Z"/>
    <path class="st0" d="M272.88,33.94c-.58,1.04-1.6,1.62-2.95,1.62-2.38,0-3.35-1.56-3.35-3.94v-6.3h2.21v5.77c0,1.36.19,2.68,1.84,2.68s2.25-1.3,2.25-3.11v-5.34h2.21v10h-2.21v-1.38h0Z"/>
    <path class="st0" d="M282.96,27.56c-.37-.04-.73-.06-1.06-.06-1.4,0-2.19.56-2.19,2.57v5.24h-2.21v-10h2.18v1.79c.54-1.12,1.51-1.79,2.72-1.8.17,0,.41.02.58.04v2.23h0Z"/>
    <path class="st0" d="M293.63,30.33c0,3.62-2.49,5.23-4.93,5.23s-4.93-1.6-4.93-5.23,2.49-5.24,4.93-5.24,4.93,1.64,4.93,5.24ZM288.7,33.75c1.41,0,2.64-1.12,2.64-3.42s-1.23-3.44-2.64-3.44-2.64,1.14-2.64,3.44,1.23,3.42,2.64,3.42Z"/>
    <path class="st0" d="M297.69,25.31v1.34c.6-.99,1.64-1.56,2.97-1.56,2.45,0,4.29,2.03,4.29,5.23s-1.84,5.24-4.29,5.24c-1.34,0-2.38-.58-2.97-1.56v4.57h-2.21v-13.26h2.21ZM300.17,33.75c1.56,0,2.47-1.3,2.47-3.44s-.91-3.42-2.47-3.42c-1.45,0-2.58,1.12-2.58,3.42s1.14,3.44,2.58,3.44Z"/>
    <path class="st0" d="M308.47,30.94c.15,1.86,1.45,2.77,2.72,2.77,1.17,0,2.07-.45,2.45-1.4h2.18c-.45,1.6-1.97,3.23-4.54,3.23-3.22,0-5.06-2.44-5.06-5.32s2.07-5.15,4.91-5.15c3.07,0,5,2.51,4.8,5.86h-7.46ZM308.47,29.33h5.21c-.06-1.56-1.25-2.51-2.55-2.51-1.04,0-2.45.63-2.66,2.51h0Z"/>
    <path class="st0" d="M317.16,32.56c0-2.51,3.09-3.11,6.73-3.49v-.19c0-1.71-.97-2.23-2.08-2.23s-1.95.6-2.01,1.8h-2.18c.15-2.03,1.84-3.44,4.26-3.44s4.28,1.1,4.22,4.29c0,.48-.04,1.67-.04,2.58,0,1.26.09,2.58.3,3.42h-2.03c-.07-.43-.13-.67-.19-1.36-.65,1.1-1.8,1.6-3.29,1.6-2.18,0-3.7-1.17-3.7-2.99h0ZM323.94,30.61c-3.16.3-4.44.76-4.44,1.9,0,.87.73,1.4,1.84,1.4,1.64,0,2.6-.82,2.6-2.53v-.76h0Z"/>
    <path class="st0" d="M330.57,26.71c.58-1.04,1.62-1.62,3.03-1.62,2.42,0,3.4,1.56,3.4,3.94v6.28h-2.21v-5.75c0-1.36-.19-2.68-1.9-2.68s-2.32,1.3-2.32,3.11v5.32h-2.21v-10h2.21v1.4h0Z"/>
    <path class="st0" d="M255.36,43.29h5.08c2.45,0,4.85.67,4.85,3.44,0,1.26-.71,2.38-1.51,2.88,1.12.5,2.03,1.38,2.03,3.16,0,2.9-2.29,4-5.04,4h-5.41v-13.48h0ZM257.72,48.92h2.94c1.4,0,2.23-.6,2.23-1.93,0-1.19-.89-1.8-2.23-1.8h-2.94v3.74ZM257.72,54.87h3.14c1.69,0,2.51-.76,2.51-2.1s-.84-2.05-2.64-2.05h-3.01v4.15Z"/>
    <path class="st0" d="M273.31,49.01c-.37-.04-.73-.06-1.06-.06-1.4,0-2.19.56-2.19,2.57v5.24h-2.21v-10h2.18v1.79c.54-1.12,1.51-1.79,2.72-1.8.17,0,.41.02.58.04v2.23h0Z"/>
    <path class="st0" d="M274.11,54.02c0-2.51,3.09-3.11,6.73-3.49v-.19c0-1.71-.97-2.23-2.08-2.23s-1.95.6-2.01,1.8h-2.18c.15-2.03,1.84-3.44,4.26-3.44s4.28,1.1,4.22,4.29c0,.48-.04,1.67-.04,2.58,0,1.26.09,2.58.3,3.42h-2.03c-.07-.43-.13-.67-.19-1.36-.65,1.1-1.8,1.6-3.29,1.6-2.18,0-3.7-1.17-3.7-2.99h0ZM280.9,52.06c-3.16.3-4.44.76-4.44,1.9,0,.87.73,1.4,1.84,1.4,1.64,0,2.6-.82,2.6-2.53v-.76h0Z"/>
    <path class="st0" d="M287.52,48.16c.58-1.04,1.62-1.62,3.03-1.62,2.42,0,3.4,1.56,3.4,3.94v6.28h-2.21v-5.75c0-1.36-.19-2.68-1.9-2.68s-2.32,1.3-2.32,3.11v5.32h-2.21v-10h2.21v1.4h0Z"/>
    <path class="st0" d="M303,43.29h2.21v13.48h-2.21v-1.32c-.6.99-1.64,1.56-2.97,1.56-2.38,0-4.35-2.03-4.35-5.24s1.97-5.23,4.35-5.23c1.34,0,2.38.58,2.97,1.56v-4.82h0ZM300.51,48.35c-1.49,0-2.53,1.34-2.53,3.42s1.04,3.44,2.53,3.44,2.58-1.14,2.58-3.44-1.15-3.42-2.58-3.42Z"/>
    <path class="st0" d="M311.83,53.03c0-2.05,1.49-3.33,3.27-3.98-.87-1.02-1.43-2.01-1.43-3.07,0-1.8,1.58-2.94,3.76-2.94,1.71,0,3.61.76,3.61,2.97,0,1.56-1.12,2.79-2.6,3.48l2.16,2.32c.3-.8.47-1.64.52-2.51h2.23c-.15,1.41-.58,2.83-1.3,4.09l3.11,3.37h-3.03l-1.43-1.56c-1.12,1.12-2.57,1.8-4.35,1.8-2.72,0-4.5-1.73-4.5-3.98h0,0ZM319.43,53.83l-3.16-3.48c-1.4.52-2.14,1.36-2.14,2.55,0,1.41.95,2.3,2.58,2.3,1.06,0,1.99-.54,2.72-1.38ZM317.28,48.23l.02.02c1.14-.5,1.64-1.32,1.64-2.16,0-.91-.67-1.38-1.49-1.38s-1.47.45-1.47,1.21.63,1.58,1.3,2.3h0Z"/>
    <path class="st0" d="M335.31,43.29c2.95,0,5.73.47,5.73,4.24,0,3.4-2.51,4.15-5.69,4.15h-2.12v5.1h-2.36v-13.48h4.44ZM333.23,45.19v4.56h2.19c1.79,0,3.16-.26,3.16-2.19,0-2.18-1.62-2.36-3.27-2.36h-2.08Z"/>
    <path class="st0" d="M341.88,54.02c0-2.51,3.09-3.11,6.73-3.49v-.19c0-1.71-.97-2.23-2.08-2.23s-1.95.6-2.01,1.8h-2.18c.15-2.03,1.84-3.44,4.26-3.44s4.28,1.1,4.22,4.29c0,.48-.04,1.67-.04,2.58,0,1.26.09,2.58.3,3.42h-2.03c-.07-.43-.13-.67-.19-1.36-.65,1.1-1.8,1.6-3.29,1.6-2.18,0-3.7-1.17-3.7-2.99h0ZM348.67,52.06c-3.16.3-4.44.76-4.44,1.9,0,.87.73,1.4,1.84,1.4,1.64,0,2.6-.82,2.6-2.53v-.76h0Z"/>
    <path class="st0" d="M361.79,50.19h-2.16c-.2-1.06-1.12-1.8-2.32-1.8-1.4,0-2.62,1.02-2.62,3.38s1.26,3.4,2.57,3.4c1.1,0,2.16-.48,2.45-1.82h2.16c-.45,2.34-2.51,3.66-4.65,3.66-2.9,0-4.82-2.25-4.82-5.23s1.91-5.24,4.91-5.24c2.19,0,4.09,1.43,4.48,3.64h0,0Z"/>
    <path class="st0" d="M365.77,43.29v7.49l3.7-4.02h2.66l-3.83,4.11,4.26,5.89h-2.58l-3.14-4.33-1.06,1.14v3.2h-2.21v-13.48h2.22Z"/>
    <path class="st0" d="M372.88,54.02c0-2.51,3.09-3.11,6.73-3.49v-.19c0-1.71-.97-2.23-2.08-2.23s-1.95.6-2.01,1.8h-2.18c.15-2.03,1.84-3.44,4.26-3.44s4.28,1.1,4.22,4.29c0,.48-.04,1.67-.04,2.58,0,1.26.09,2.58.3,3.42h-2.03c-.07-.43-.13-.67-.19-1.36-.65,1.1-1.8,1.6-3.29,1.6-2.18,0-3.7-1.17-3.7-2.99h0ZM379.67,52.06c-3.16.3-4.44.76-4.44,1.9,0,.87.73,1.4,1.84,1.4,1.64,0,2.6-.82,2.6-2.53v-.76h0Z"/>
    <path class="st0" d="M390.73,46.77h2.21v9c0,1.62-.41,2.79-1.21,3.53s-1.99,1.08-3.55,1.08c-2.19,0-3.92-.87-4.28-3.07h2.19c.2.95.8,1.32,2.14,1.32.99,0,1.62-.28,1.99-.73.37-.43.5-1.04.5-1.69v-1.17c-.6.99-1.64,1.56-2.97,1.56-2.38,0-4.35-1.91-4.35-5.04s1.97-5.02,4.35-5.02c1.34,0,2.38.58,2.97,1.56v-1.34h0ZM388.24,48.31c-1.49,0-2.53,1.25-2.53,3.25s1.04,3.29,2.53,3.29,2.58-1.04,2.58-3.29-1.15-3.25-2.58-3.25Z"/>
    <path class="st0" d="M397.55,43.29v2.23h-2.21v-2.23h2.21ZM397.55,46.77v10h-2.21v-10h2.21Z"/>
    <path class="st0" d="M402.15,48.16c.58-1.04,1.62-1.62,3.03-1.62,2.42,0,3.4,1.56,3.4,3.94v6.28h-2.21v-5.75c0-1.36-.19-2.68-1.9-2.68s-2.32,1.3-2.32,3.11v5.32h-2.21v-10h2.21v1.4h0Z"/>
    <path class="st0" d="M417.59,46.77h2.21v9c0,1.62-.41,2.79-1.21,3.53s-1.99,1.08-3.55,1.08c-2.19,0-3.92-.87-4.28-3.07h2.19c.2.95.8,1.32,2.14,1.32.99,0,1.62-.28,1.99-.73.37-.43.5-1.04.5-1.69v-1.17c-.6.99-1.64,1.56-2.97,1.56-2.38,0-4.35-1.91-4.35-5.04s1.97-5.02,4.35-5.02c1.34,0,2.38.58,2.97,1.56v-1.34h0ZM415.1,48.31c-1.49,0-2.53,1.25-2.53,3.25s1.04,3.29,2.53,3.29,2.58-1.04,2.58-3.29-1.15-3.25-2.58-3.25Z"/>
    <path class="st0" d="M259.04,64.74c4.26,0,7.53,1.47,7.53,6.73s-3.27,6.75-7.53,6.75h-3.68v-13.48h3.68ZM258.93,66.64h-1.21v9.69h1.21c2.58,0,5.19-.6,5.19-4.85s-2.6-4.83-5.19-4.83h0Z"/>
    <path class="st0" d="M270.32,73.85c.15,1.86,1.45,2.77,2.72,2.77,1.17,0,2.07-.45,2.45-1.4h2.18c-.45,1.6-1.97,3.23-4.54,3.23-3.22,0-5.06-2.44-5.06-5.32s2.07-5.15,4.91-5.15c3.07,0,5,2.51,4.8,5.86h-7.46ZM270.32,72.23h5.21c-.06-1.56-1.25-2.51-2.55-2.51-1.04,0-2.45.63-2.66,2.51h0Z"/>
    <path class="st0" d="M285.32,70.95c-.24-.91-1.08-1.26-2.19-1.26-.97,0-1.86.43-1.86,1.1s.47,1.02,1.34,1.19l1.41.28c2.03.39,3.57,1.02,3.57,2.97,0,2.08-1.97,3.23-4.24,3.23-2.45,0-4.09-1.41-4.33-3.29h2.16c.21,1.04.93,1.62,2.25,1.62,1.17,0,2.01-.48,2.01-1.3s-.75-1.17-1.73-1.38l-1.51-.3c-1.69-.35-3.01-1.08-3.01-2.92s1.91-2.9,4.07-2.9c1.95,0,3.74.95,4.15,2.95h-2.08s0,0,0,0Z"/>
    <path class="st0" d="M291.62,64.74v2.23h-2.21v-2.23h2.21ZM291.62,68.22v10h-2.21v-10h2.21Z"/>
    <path class="st0" d="M300.75,68.22h2.21v9c0,1.62-.41,2.79-1.21,3.53-.8.75-1.99,1.08-3.55,1.08-2.19,0-3.92-.87-4.28-3.07h2.19c.2.95.8,1.32,2.14,1.32.99,0,1.62-.28,1.99-.73.37-.43.5-1.04.5-1.69v-1.17c-.6.99-1.64,1.56-2.97,1.56-2.38,0-4.35-1.91-4.35-5.04s1.97-5.02,4.35-5.02c1.34,0,2.38.58,2.97,1.56v-1.34h0ZM298.26,69.76c-1.49,0-2.53,1.25-2.53,3.25s1.04,3.29,2.53,3.29,2.58-1.04,2.58-3.29-1.15-3.25-2.58-3.25Z"/>
    <path class="st0" d="M307.57,69.61c.58-1.04,1.62-1.62,3.03-1.62,2.42,0,3.4,1.56,3.4,3.94v6.28h-2.21v-5.75c0-1.36-.19-2.68-1.9-2.68s-2.32,1.3-2.32,3.11v5.32h-2.21v-10h2.21v1.4h0Z"/>
    <path class="st0" d="M325.14,64.74h2.49l5.06,13.48h-2.58l-1.06-2.99h-5.47l-1.04,2.99h-2.42l5.02-13.48h0ZM324.27,73.25h4.07l-2.05-5.78-2.03,5.78h0Z"/>
    <path class="st0" d="M339.65,70.95c-.24-.91-1.08-1.26-2.19-1.26-.97,0-1.86.43-1.86,1.1s.47,1.02,1.34,1.19l1.41.28c2.03.39,3.57,1.02,3.57,2.97,0,2.08-1.97,3.23-4.24,3.23-2.45,0-4.09-1.41-4.33-3.29h2.16c.21,1.04.93,1.62,2.25,1.62,1.17,0,2.01-.48,2.01-1.3s-.75-1.17-1.73-1.38l-1.51-.3c-1.69-.35-3.01-1.08-3.01-2.92s1.91-2.9,4.07-2.9c1.95,0,3.74.95,4.15,2.95h-2.08s0,0,0,0Z"/>
    <path class="st0" d="M349.5,70.95c-.24-.91-1.08-1.26-2.19-1.26-.97,0-1.86.43-1.86,1.1s.47,1.02,1.34,1.19l1.41.28c2.03.39,3.57,1.02,3.57,2.97,0,2.08-1.97,3.23-4.24,3.23-2.45,0-4.09-1.41-4.33-3.29h2.16c.21,1.04.93,1.62,2.25,1.62,1.17,0,2.01-.48,2.01-1.3s-.75-1.17-1.73-1.38l-1.51-.3c-1.69-.35-3.01-1.08-3.01-2.92s1.91-2.9,4.07-2.9c1.95,0,3.74.95,4.15,2.95h-2.08s0,0,0,0Z"/>
    <path class="st0" d="M362.82,73.24c0,3.62-2.49,5.23-4.93,5.23s-4.93-1.6-4.93-5.23,2.49-5.24,4.93-5.24,4.93,1.64,4.93,5.24ZM357.89,76.66c1.41,0,2.64-1.12,2.64-3.42s-1.23-3.44-2.64-3.44-2.64,1.14-2.64,3.44,1.23,3.42,2.64,3.42Z"/>
    <path class="st0" d="M373.46,71.64h-2.16c-.2-1.06-1.12-1.8-2.32-1.8-1.4,0-2.62,1.02-2.62,3.38s1.26,3.4,2.57,3.4c1.1,0,2.16-.49,2.45-1.82h2.16c-.45,2.34-2.51,3.66-4.65,3.66-2.9,0-4.82-2.25-4.82-5.23s1.91-5.24,4.91-5.24c2.19,0,4.09,1.43,4.48,3.64h0,0Z"/>
    <path class="st0" d="M377.46,64.74v2.23h-2.21v-2.23h2.21ZM377.46,68.22v10h-2.21v-10h2.21Z"/>
    <path class="st0" d="M379.27,75.47c0-2.51,3.09-3.11,6.73-3.49v-.19c0-1.71-.97-2.23-2.08-2.23s-1.95.6-2.01,1.8h-2.18c.15-2.03,1.84-3.44,4.26-3.44s4.28,1.1,4.22,4.29c0,.48-.04,1.67-.04,2.58,0,1.26.09,2.58.3,3.42h-2.03c-.07-.43-.13-.67-.19-1.36-.65,1.1-1.8,1.6-3.29,1.6-2.18,0-3.7-1.17-3.7-2.99h0ZM386.06,73.52c-3.16.3-4.44.76-4.44,1.9,0,.87.73,1.4,1.84,1.4,1.64,0,2.6-.82,2.6-2.53v-.76h0Z"/>
    <path class="st0" d="M390.74,65.58h2.21v2.64h2.01v1.6h-2.01v5.45c0,1.02.24,1.26,1.19,1.26h.8v1.69h-1.64c-2.14,0-2.57-.58-2.57-2.62v-5.78h-1.49v-1.6h1.49v-2.64h0Z"/>
    <path class="st0" d="M398.87,64.74v2.23h-2.21v-2.23h2.21ZM398.87,68.22v10h-2.21v-10h2.21Z"/>
    <path class="st0" d="M410.57,73.24c0,3.62-2.49,5.23-4.93,5.23s-4.93-1.6-4.93-5.23,2.49-5.24,4.93-5.24,4.93,1.64,4.93,5.24ZM405.64,76.66c1.41,0,2.64-1.12,2.64-3.42s-1.23-3.44-2.64-3.44-2.64,1.14-2.64,3.44,1.23,3.42,2.64,3.42Z"/>
    <path class="st0" d="M414.62,69.61c.58-1.04,1.62-1.62,3.03-1.62,2.42,0,3.4,1.56,3.4,3.94v6.28h-2.21v-5.75c0-1.36-.19-2.68-1.9-2.68s-2.32,1.3-2.32,3.11v5.32h-2.21v-10h2.21v1.4h0Z"/>
  </g>
</svg>