<?xml version="1.0" encoding="UTF-8"?>
<svg id="Ebene_1" xmlns="http://www.w3.org/2000/svg" version="1.1" viewBox="0 0 388.16 99.9">
  <!-- Generator: Adobe Illustrator 29.7.1, SVG Export Plug-In . SVG Version: 2.1.1 Build 8)  -->
  <defs>
    <style>
      .st0 {
        fill: #e60000;
      }
    </style>
  </defs>
  <g id="Bild">
    <path class="st0" d="M23.41,90.66c7.57,6.83,19.25,6.23,26.08-1.34,3.08-3.41,4.77-7.84,4.76-12.43H17.23c0,5.26,2.25,10.28,6.18,13.77Z"/>
    <path class="st0" d="M35.75,18.26h0c-10.22,0-18.5,8.28-18.5,18.5h0v26.39h37.01V18.26h-18.52Z"/>
    <rect class="st0" x="3.49" y="63.15" width="13.76" height="13.76"/>
    <rect class="st0" x="54.24" y="4.5" width="13.76" height="13.76"/>
  </g>
  <g id="Wort">
    <path d="M218.34,23.99v38.97h-2.16c-4.83.01-8.75-3.89-8.76-8.71,0,0,0-.01,0-.02h0v-15.49h0c-.27-8.21-7-14.73-15.22-14.74h-2.17v6.49h-6.49v38.97h6.49V30.49h2.17c4.82,0,8.73,3.9,8.74,8.72v15.01h0c.01,8.41,6.83,15.22,15.24,15.23h8.66V23.99h-6.49Z"/>
    <path d="M133.6,63.59c-4.82,0-8.73-3.91-8.74-8.74h0v-2.74h24.02v-15.14h-6.54v8.61h-17.47c.01-1.23.28-2.44.8-3.55,1.42-3.1,4.52-5.09,7.93-5.1h8.74v-6.46h-8.74c-8.38,0-15.18,6.77-15.23,15.15v9.23c-.02,8.4,6.78,15.23,15.19,15.25,7.06.02,13.2-4.83,14.84-11.7h-6.83c-1.4,3.15-4.53,5.18-7.97,5.18Z"/>
    <path d="M247.05,63.59c-4.83,0-8.74-3.91-8.74-8.74h0v-2.74h23.96v-15.14h-6.49v8.61h-17.47c.08-4.77,3.97-8.6,8.74-8.61h8.74v-6.5h-8.74c-8.38,0-15.18,6.77-15.23,15.15v9.23c0,8.41,6.82,15.23,15.23,15.22,7.04,0,13.16-4.83,14.8-11.67h-6.83c-1.41,3.15-4.53,5.18-7.98,5.18Z"/>
    <rect x="331.69" y="23.99" width="6.5" height="45.47"/>
    <path d="M104.98,36.98v21.2h-17.47v-12.44h0c0-4.83,3.91-8.74,8.74-8.74h8.74v-6.52h-8.75c-8.42,0-15.24,6.83-15.24,15.25,0,0,0,0,0,0h0v12.45h6.5v6.49h17.49c0,4.82-3.91,8.73-8.74,8.74-4.82,0-8.74-3.91-8.75-8.74h-6.5c0,8.41,6.82,15.23,15.24,15.23,8.41,0,15.23-6.82,15.23-15.23h0v-27.7h-6.48Z"/>
    <polygon points="384 23.99 343.07 23.99 343.07 30.48 360.29 30.48 360.29 69.45 366.79 69.45 366.79 30.48 384 30.48 384 23.99"/>
    <polygon points="289.99 30.48 281.79 43.01 273.58 30.48 265.82 30.48 277.9 48.93 264.47 69.45 272.23 69.45 281.79 54.86 291.34 69.45 299.11 69.45 285.67 48.93 297.75 30.48 289.99 30.48"/>
    <path d="M154.52,30.49v6.49h6.5v23.74c.02,4.82,3.92,8.71,8.74,8.74h5.97v-6.5h-5.97c-1.24,0-2.24-.99-2.25-2.23,0,0,0,0,0,0v-23.74h6.5v-6.5h-6.5v-6.49h-6.49v4.87c0,.9-.73,1.62-1.63,1.62h-4.87Z"/>
    <path d="M302.23,30.49v6.49h6.49v23.74c0,3.71,2.33,7.02,5.82,8.26.94.34,1.92.51,2.92.52h6.03v-6.54h-6.03c-1.24,0-2.24-1-2.24-2.24h0v-23.74h6.5v-6.5h-6.5v-6.49h-6.5v4.87c0,.9-.73,1.62-1.63,1.62h-4.86Z"/>
  </g>
</svg>