<?xml version="1.0" encoding="UTF-8"?>
<svg id="Ebene_1" data-name="Ebene 1" xmlns="http://www.w3.org/2000/svg" viewBox="0 0 180 180">
  <defs>
    <style>
      .cls-1 {
        fill: none;
        stroke: #000;
        stroke-linecap: round;
        stroke-linejoin: round;
        stroke-width: 4px;
      }
    </style>
  </defs>
  <rect class="cls-1" x="65.67" y="135.9" width="46.28" height="14.13" rx="4.19" ry="4.19"/>
  <rect class="cls-1" x="72.51" y="104.74" width="32.61" height="11.48" rx="4.19" ry="4.19"/>
  <rect class="cls-1" x="65.67" y="150.03" width="46.28" height="14.13" rx="4.19" ry="4.19"/>
  <path class="cls-1" d="M72.28,164.16h33.07s-.77,9.58-7.96,9.58h-16.38s-7.35.41-8.73-9.58Z"/>
  <rect class="cls-1" x="82.34" y="116.23" width="12.95" height="19.67"/>
  <line class="cls-1" x1="89.45" y1="20.75" x2="89.45" y2="6.26"/>
  <line class="cls-1" x1="129.71" y1="38.2" x2="140.57" y2="27.33"/>
  <line class="cls-1" x1="146.55" y1="78.92" x2="161.55" y2="78.92"/>
  <line class="cls-1" x1="129.71" y1="118.42" x2="140.31" y2="129.03"/>
  <line class="cls-1" x1="48.26" y1="118.9" x2="37.39" y2="129.77"/>
  <line class="cls-1" x1="31.42" y1="78.18" x2="16.42" y2="78.18"/>
  <line class="cls-1" x1="48.26" y1="38.68" x2="37.65" y2="28.07"/>
  <path class="cls-1" d="M135.14,76.7c0-25.51-20.68-46.19-46.19-46.19s-46.19,20.68-46.19,46.19c0,15.84,8.58,30.51,20.73,38.84h0c9.02,6.94,8.8,20.37,8.8,20.37,0,0,33.57.03,33.72-.02,0-14.91,7.96-20.34,7.96-20.34h-.02c13.54-10.79,21.19-22.54,21.19-38.84Z"/>
</svg>