<?xml version="1.0" encoding="UTF-8"?>
<svg id="Ebene_1" data-name="Ebene 1" xmlns="http://www.w3.org/2000/svg" viewBox="0 0 180 180">
  <defs>
    <style>
      .cls-1 {
        fill: none;
        stroke: #000;
        stroke-linecap: round;
        stroke-linejoin: round;
        stroke-width: 4px;
      }
    </style>
  </defs>
  <polygon class="cls-1" points="84.18 96.94 109.75 138.88 60.61 138.88 84.18 96.94"/>
  <polyline class="cls-1" points="67.69 125.44 58.61 110.92 41.04 138.96 60.3 138.88"/>
  <ellipse class="cls-1" cx="154.28" cy="37.9" rx="14.99" ry="26.31"/>
  <ellipse class="cls-1" cx="153.84" cy="92.97" rx="14.99" ry="26.31"/>
  <path class="cls-1" d="M154.28,11.59H21.83s-11.46,5.76-11.46,26.31c0,21.75,11.46,28.76,11.46,28.76,0,0-11.46,7.71-11.46,26.31,0,16.49,11.46,26.76,11.46,26.76l11.55.03"/>
  <line class="cls-1" x1="120.78" y1="119.28" x2="153.84" y2="119.28"/>
  <line class="cls-1" x1="153.84" y1="66.65" x2="21.83" y2="66.65"/>
  <path class="cls-1" d="M128.3,66.65s-8.77,1.44-8.77,25.87v76.72H33.38v-76.72s-.98-19.43,10.03-25.45"/>
</svg>