<?xml version="1.0" encoding="UTF-8"?>
<svg id="Ebene_1" data-name="Ebene 1" xmlns="http://www.w3.org/2000/svg" viewBox="0 0 180 180">
  <defs>
    <style>
      .cls-1 {
        fill: none;
        stroke: #000;
        stroke-linecap: round;
        stroke-linejoin: round;
        stroke-width: 4px;
      }
    </style>
  </defs>
  <path class="cls-1" d="M128.63,32.93v-12.13c0-4.4-3.6-8-8-8H45.01c-4.4,0-8,3.6-8,8v137.38c0,4.4,3.6,8,8,8h75.62c4.4,0,8-3.6,8-8V62.2"/>
  <line class="cls-1" x1="102.09" y1="45.6" x2="37.99" y2="45.6"/>
  <line class="cls-1" x1="37.2" y1="135.55" x2="127.86" y2="135.55"/>
  <circle class="cls-1" cx="82.82" cy="150.98" r="6.64"/>
  <circle class="cls-1" cx="82.54" cy="83.05" r="14.68"/>
  <path class="cls-1" d="M58.96,135.42v-11.5s-.23-25.08,23.58-25.08,23.65,24.1,23.65,24.1v12.48"/>
  <line class="cls-1" x1="65.37" y1="22.89" x2="99.86" y2="22.89"/>
  <polygon class="cls-1" points="103.16 33.6 103.16 62.73 113.44 62.73 113.44 74.51 125.76 62.2 148.14 62.2 148.14 33.6 103.16 33.6"/>
</svg>