<?xml version="1.0" encoding="UTF-8"?>
<svg id="Ebene_1" xmlns="http://www.w3.org/2000/svg" version="1.1" viewBox="0 0 465.13 90.19">
    <!-- Generator: Adobe Illustrator 29.2.1, SVG Export Plug-In . SVG Version: 2.1.0 Build 116)  -->
    <path d="M27.67,68.95c-3.45,0-6.48-.61-9.06-1.82s-4.6-2.96-6.02-5.25c-1.42-2.29-2.13-4.97-2.13-8.05h8.61c0,2.29.78,4.11,2.34,5.46,1.56,1.35,3.65,2.03,6.27,2.03s4.52-.68,5.98-2.03c1.47-1.35,2.21-3.13,2.21-5.32,0-1.68-.47-3.17-1.4-4.48-.93-1.31-2.31-2.17-4.13-2.59l-6.86-1.75c-3.69-.93-6.6-2.68-8.75-5.25-2.15-2.57-3.22-5.62-3.22-9.17,0-2.89.64-5.41,1.92-7.56,1.28-2.15,3.1-3.8,5.46-4.97,2.36-1.17,5.12-1.75,8.3-1.75s6.02.58,8.4,1.75c2.38,1.17,4.23,2.81,5.56,4.93,1.33,2.12,2,4.61,2,7.46h-8.54c0-2.01-.68-3.6-2.03-4.79-1.35-1.19-3.15-1.79-5.39-1.79s-3.93.6-5.22,1.79c-1.28,1.19-1.92,2.74-1.92,4.66,0,1.59.46,2.89,1.36,3.92.91,1.03,2.18,1.77,3.81,2.24l7.07,1.75c3.78.93,6.75,2.8,8.92,5.6s3.25,6.14,3.25,10.01c0,3.03-.69,5.67-2.06,7.91-1.38,2.24-3.32,3.98-5.84,5.21-2.52,1.24-5.48,1.86-8.89,1.86Z"/>
    <path d="M71.91,68.25c-3.59,0-6.45-1.04-8.58-3.12-2.12-2.08-3.19-4.89-3.19-8.43v-19.04h-10.64v-7.91h10.64v-10.85h8.82v10.85h15.33v7.91h-15.33v18.83c0,1.12.31,2.04.94,2.76.63.72,1.5,1.08,2.62,1.08h11.41v7.91h-12.04Z"/>
    <path d="M108.65,68.95c-4.9,0-8.75-1.37-11.55-4.09-2.8-2.73-4.2-6.45-4.2-11.17v-23.94h8.75v23.87c0,2.43.61,4.32,1.82,5.67,1.21,1.35,2.94,2.03,5.18,2.03s3.91-.68,5.15-2.03c1.24-1.35,1.85-3.24,1.85-5.67v-23.87h8.75v23.94c0,4.71-1.42,8.43-4.27,11.17-2.85,2.73-6.67,4.09-11.48,4.09Z"/>
    <path d="M145.75,68.95c-3.73,0-6.75-1.33-9.06-3.99s-3.46-6.23-3.46-10.71v-10.43c0-4.53,1.15-8.12,3.46-10.78s5.33-3.99,9.06-3.99c3.45,0,6.18,1.08,8.19,3.25,2.01,2.17,3.01,5.12,3.01,8.86l-2.59-3.64h2.03l-.28-9.59v-10.78h8.75v51.1h-8.54v-7.77h-1.96l2.52-3.64c0,3.73-.99,6.69-2.98,8.86-1.98,2.17-4.7,3.25-8.15,3.25ZM149.04,61.39c2.24,0,3.98-.68,5.21-2.03,1.24-1.35,1.85-3.27,1.85-5.74v-9.24c0-2.47-.62-4.39-1.85-5.74-1.24-1.35-2.98-2.03-5.21-2.03s-3.98.61-5.21,1.82c-1.24,1.21-1.85,3.08-1.85,5.6v9.94c0,2.47.62,4.33,1.85,5.57,1.24,1.24,2.97,1.85,5.21,1.85Z"/>
    <path d="M174.17,68.25v-7.91h13.16v-22.68h-11.76v-7.91h20.51v30.59h11.83v7.91h-33.74ZM191.11,23.31c-1.77,0-3.17-.45-4.2-1.36-1.03-.91-1.54-2.14-1.54-3.68s.51-2.76,1.54-3.67c1.03-.91,2.43-1.36,4.2-1.36s3.17.45,4.2,1.36c1.03.91,1.54,2.14,1.54,3.67s-.51,2.77-1.54,3.68c-1.03.91-2.43,1.36-4.2,1.36Z"/>
    <path d="M230.45,68.88c-3.27,0-6.11-.63-8.54-1.89-2.43-1.26-4.29-3.04-5.6-5.36-1.31-2.31-1.96-5.03-1.96-8.15v-8.96c0-3.17.65-5.9,1.96-8.19,1.31-2.29,3.17-4.06,5.6-5.32,2.43-1.26,5.27-1.89,8.54-1.89s6.17.63,8.58,1.89c2.4,1.26,4.26,3.03,5.56,5.32,1.31,2.29,1.96,5.02,1.96,8.19v8.96c0,3.13-.65,5.84-1.96,8.15-1.31,2.31-3.16,4.1-5.56,5.36-2.4,1.26-5.26,1.89-8.58,1.89ZM230.45,61.25c2.33,0,4.14-.64,5.42-1.92s1.92-3.14,1.92-5.57v-9.52c0-2.47-.64-4.34-1.92-5.6-1.28-1.26-3.09-1.89-5.42-1.89s-4.08.63-5.39,1.89c-1.31,1.26-1.96,3.13-1.96,5.6v9.52c0,2.43.65,4.28,1.96,5.57,1.31,1.28,3.1,1.92,5.39,1.92Z"/>
    <path d="M293.1,68.25l12.88-51.1h11.27l12.95,51.1h-8.96l-2.8-12.39h-13.58l-2.8,12.39h-8.96ZM306.47,48.72h10.36l-3.08-13.72c-.51-2.29-.96-4.35-1.33-6.2-.37-1.84-.63-3.18-.77-4.02-.14.84-.38,2.18-.74,4.02-.35,1.84-.8,3.89-1.36,6.12l-3.08,13.79Z"/>
    <path d="M336.92,80.85v-7.91h10.15c2.24,0,4.01-.67,5.32-2s1.96-3.14,1.96-5.43v-27.86h-17.78v-7.91h26.53v35.98c0,4.67-1.4,8.35-4.2,11.06-2.8,2.71-6.58,4.06-11.34,4.06h-10.64ZM358.27,23.31c-1.77,0-3.17-.45-4.2-1.36-1.03-.91-1.54-2.14-1.54-3.68s.51-2.76,1.54-3.67c1.03-.91,2.43-1.36,4.2-1.36s3.17.45,4.2,1.36,1.54,2.14,1.54,3.67-.51,2.77-1.54,3.68-2.43,1.36-4.2,1.36Z"/>
    <path d="M392.85,68.88c-3.27,0-6.11-.63-8.54-1.89-2.43-1.26-4.29-3.04-5.6-5.36-1.31-2.31-1.96-5.03-1.96-8.15v-8.96c0-3.17.65-5.9,1.96-8.19,1.31-2.29,3.17-4.06,5.6-5.32,2.43-1.26,5.27-1.89,8.54-1.89s6.17.63,8.58,1.89c2.4,1.26,4.26,3.03,5.56,5.32,1.31,2.29,1.96,5.02,1.96,8.19v8.96c0,3.13-.65,5.84-1.96,8.15-1.31,2.31-3.16,4.1-5.56,5.36-2.4,1.26-5.26,1.89-8.58,1.89ZM392.85,61.25c2.33,0,4.14-.64,5.42-1.92s1.92-3.14,1.92-5.57v-9.52c0-2.47-.64-4.34-1.92-5.6-1.28-1.26-3.09-1.89-5.42-1.89s-4.08.63-5.39,1.89c-1.31,1.26-1.96,3.13-1.96,5.6v9.52c0,2.43.65,4.28,1.96,5.57,1.31,1.28,3.1,1.92,5.39,1.92Z"/>
    <path d="M437.3,68.25c-3.59,0-6.45-1.04-8.57-3.12-2.12-2.08-3.19-4.89-3.19-8.43v-19.04h-10.64v-7.91h10.64v-10.85h8.82v10.85h15.33v7.91h-15.33v18.83c0,1.12.31,2.04.95,2.76.63.72,1.5,1.08,2.62,1.08h11.41v7.91h-12.04Z"/>
</svg>